Coordinates
version=1
nRows=14
nColumns=33
inDegrees=yes

Units are S.I. units (second, meters, Newtons, ...)
Angles are in degrees.

endheader
time	ground_thorax_rot_x	ground_thorax_rot_y	ground_thorax_rot_z	ground_thorax_tx	ground_thorax_ty	ground_thorax_tz	clav_prot_r	clav_elev_r	scapula_abduction_r	scapula_elevation_r	scapula_upward_rot_r	scapula_winging_r	shoulder_elv_r	plane_of_elev_r	axial_rot_r	elbow_flexion_r	pro_sup_r	wrist_flex_r	wrist_dev_r	clav_prot_l	clav_elev_l	scapula_abduction_l	scapula_elevation_l	scapula_upward_rot_l	scapula_winging_l	shoulder_elv_l	plane_of_elev_l	axial_rot_l	elbow_flexion_l	pro_sup_l	wrist_flex_l	wrist_dev_l
      8.22000000	    -40.92517458	     -2.32246612	     -3.66071879	   -219.79857108	    856.37930999	     -6.08694617	     13.18228705	    -45.00000000	     39.98235644	    -45.00000000	    -45.00000000	    626.65782312	   1691.92305433	    150.53680694	    179.99999979	    724.94907598	     61.19955314	     27.87668095	     16.00990738	     15.37953439	     39.32424720	    -37.38655755	    -45.00000000	    -45.00000000	    802.16174632	  -2978.62331708	    138.41011725	    164.43635867	     11.14454629	     38.97551754	      8.22343292	    -22.64698469
      8.23000000	    -40.95492685	     -2.23125333	     -3.45309661	   -220.61503621	    858.18646516	     -6.02382032	     13.25661945	    -45.00000000	     39.80517853	    -45.00000000	    -45.00000000	    626.43485284	   1691.95154610	    150.41847650	    179.99999979	    724.94393158	     61.19199908	     27.87916371	     16.04415730	     15.59088721	     39.32333820	    -37.37668471	    -45.00000000	    -45.00000000	    802.59617039	  -2978.63928016	    138.44619668	    162.81215769	     11.33704040	     39.21813652	      7.89531166	    -22.58800770
      8.24000000	    -40.91934645	     -2.00876483	     -3.50447610	   -221.17911800	    859.81114056	     -5.95313130	     13.23766020	    -45.00000000	     39.93109127	    -45.00000000	    -45.00000000	    626.37823052	   1691.97966372	    150.46401961	    179.99999979	    725.04021583	     61.12711378	     27.93054537	     16.02371832	     15.53365927	     39.35766765	    -37.37384238	    -45.00000000	    -45.00000000	    802.65888970	  -2978.63254743	    138.52017652	    162.95588586	     11.48609749	     39.22812601	      7.93841705	    -22.71027207
      8.25000000	    -40.90411913	     -1.72764302	     -3.55589410	   -221.50242198	    861.25934304	     -5.88003666	     13.21497277	    -45.00000000	     39.87100853	    -45.00000000	    -45.00000000	    626.36304167	   1692.10880484	    150.45618756	    179.99999979	    725.30661997	     61.02591164	     27.92498035	     15.90105839	     15.47037473	     39.54649788	    -37.28698712	    -45.00000000	    -44.69104617	    802.65316183	  -2978.61385980	    138.60624896	    163.06611108	     11.47123815	     39.15700809	      8.08597393	    -22.83406370
      8.26000000	    -40.88603998	     -1.52167047	     -3.63846287	   -221.59480253	    862.53578898	     -5.81047065	     13.25017440	    -45.00000000	     40.05530551	    -45.00000000	    -45.00000000	    626.27204452	   1692.17092780	    150.25608050	    179.99999979	    725.19381196	     61.00586175	     28.01308677	     15.98456399	     15.54042593	     39.25801702	    -37.34861984	    -45.00000000	    -45.00000000	    802.68017796	  -2978.48651523	    138.52281811	    163.40678462	     11.37810890	     38.93410470	      8.02631459	    -22.76911979
      8.27000000	    -40.85364029	     -1.47518296	     -3.55584030	   -221.46877551	    863.65574481	     -5.74929925	     13.14812995	    -45.00000000	     40.13557664	    -45.00000000	    -45.00000000	    626.38024474	   1692.30030479	    150.46025583	    179.99999979	    725.42326122	     60.96170896	     27.94227049	     15.81423654	     15.52086113	     39.60156070	    -37.27412163	    -45.00000000	    -45.00000000	    802.57664726	  -2978.48119082	    138.67764209	    163.61887566	     11.37854351	     38.72438099	      8.20507729	    -22.90032829
      8.28000000	    -40.83282399	     -1.02211724	     -3.80894107	   -221.13817759	    864.64331089	     -5.69957645	     13.05346256	    -45.00000000	     40.18145715	    -45.00000000	    -45.00000000	    626.33085793	   1692.33648777	    150.22938119	    179.99999979	    725.57378733	     60.98994370	     28.19699211	     15.87032951	     15.67962654	     39.25983951	    -37.52287659	    -45.00000000	    -45.00000000	    802.67403635	  -2978.49930237	    138.55622497	    164.16674691	     11.34259734	     38.44828770	      8.10914980	    -22.83738852
      8.29000000	    -40.82517012	     -0.85139932	     -3.83298034	   -220.62029881	    865.52150733	     -5.66289776	     13.03114558	    -45.00000000	     40.23625866	    -45.00000000	    -45.00000000	    626.33548493	   1692.45576265	    150.13860180	    179.99999979	    725.68689518	     61.09135699	     28.29797881	     15.86506829	     15.71975142	     39.22111902	    -37.60444537	    -45.00000000	    -45.00000000	    802.76392009	  -2978.44824188	    138.49473823	    164.41839986	     11.28328147	     38.24363906	      8.16027478	    -22.84734334
      8.30000000	    -40.81696503	     -0.68247203	     -3.84515525	   -219.93170775	    866.32650240	     -5.63797999	     13.01300655	    -45.00000000	     40.31029465	    -45.00000000	    -45.00000000	    626.34965281	   1692.54288482	    150.09275886	    179.99999979	    725.84103236	     61.26162174	     28.39611216	     15.81860823	     15.76006837	     39.23894157	    -37.68145993	    -45.00000000	    -45.00000000	    802.82549915	  -2978.38681351	    138.45860858	    164.49030290	     11.31224906	     38.08101735	      8.15094263	    -22.85349886
      8.31000000	    -40.83178982	     -0.20993503	     -4.13913954	   -219.09645156	    867.08305889	     -5.62400915	     12.98611722	    -45.00000000	     40.02934341	    -45.00000000	    -45.00000000	    626.64346272	   1692.77103191	    149.81549554	    179.99999979	    725.78866509	     61.53512255	     28.58325402	     15.91425375	     15.81202973	     39.24205124	    -38.08756012	    -45.00000000	    -44.96876416	    802.91337983	  -2978.35482038	    138.40735563	    164.44723306	     11.19267042	     38.03786561	      8.22618477	    -22.88876777
      8.32000000	    -40.84948987	     -0.15421148	     -3.99372088	   -218.14270903	    867.82868213	     -5.60984386	     12.84927824	    -45.00000000	     40.12122589	    -45.00000000	    -45.00000000	    626.56124252	   1692.81682162	    149.80701968	    179.99999979	    725.99756303	     61.83387762	     28.66148171	     15.83966415	     15.91246551	     39.28961195	    -38.05362766	    -45.00000000	    -45.00000000	    802.98863559	  -2978.07823540	    138.32768952	    164.47868581	     11.39540178	     38.01831263	      8.16658107	    -22.92068304
      8.33000000	    -40.85195139	      0.02520399	     -4.10254149	   -217.09098541	    868.58307179	     -5.59498194	     13.02720391	    -45.00000000	     40.18548484	    -45.00000000	    -45.00000000	    626.66819232	   1692.98874994	    149.69606446	    179.99999979	    726.18355167	     62.21194129	     28.96303615	     15.89536789	     15.69516011	     39.22101510	    -38.05247883	    -45.00000000	    -44.95553498	    802.93587966	  -2977.85020535	    138.24605679	    164.74817549	     11.39855489	     38.09049654	      8.14329930	    -22.93413169
      8.34000000	    -40.87789141	      0.11625619	     -4.17100997	   -215.95546344	    869.36594879	     -5.57612063	     12.91409138	    -45.00000000	     40.33789509	    -45.00000000	    -45.00000000	    626.72810495	   1693.08951090	    149.59235464	    179.99999979	    726.41154528	     62.62832189	     28.97723746	     15.77452710	     15.70963049	     39.32593733	    -37.82974829	    -45.00000000	    -44.42823093	    802.97108469	  -2977.71827183	    138.19182954	    164.82589020	     11.43532352	     38.27345289	      8.24323706	    -23.03857740
      8.35000000	    -40.86561650	      0.12975370	     -4.25249693	   -214.74261916	    870.17947098	     -5.55753164	     13.16370285	    -45.00000000	     41.09641491	    -45.00000000	    -45.00000000	    626.53038963	   1693.07551071	    149.59333892	    179.99999979	    726.95458841	     63.09787600	     29.18936214	     15.58606497	     15.46110452	     39.39335989	    -38.06364808	    -45.00000000	    -44.22334827	    803.11079145	  -2977.94799369	    138.39281108	    164.78677712	     11.57556915	     38.55228996	      8.12776359	    -23.03672101
